<?xml version="1.0" encoding="UTF-8" standalone="no"?>
<svg
   version="1.0"
   width="801.000000pt"
   height="1280.000000pt"
   viewBox="0 0 801.000000 1280.000000"
   preserveAspectRatio="xMidYMid meet"
   id="svg20"
   sodipodi:docname="marker_C.svg"
   xml:space="preserve"
   inkscape:version="1.2 (dc2aedaf03, 2022-05-15)"
   xmlns:inkscape="http://www.inkscape.org/namespaces/inkscape"
   xmlns:sodipodi="http://sodipodi.sourceforge.net/DTD/sodipodi-0.dtd"
   xmlns="http://www.w3.org/2000/svg"
   xmlns:svg="http://www.w3.org/2000/svg"><defs
     id="defs24" /><sodipodi:namedview
     id="namedview22"
     pagecolor="#ffffff"
     bordercolor="#000000"
     borderopacity="0.25"
     inkscape:showpageshadow="2"
     inkscape:pageopacity="0.0"
     inkscape:pagecheckerboard="0"
     inkscape:deskcolor="#d1d1d1"
     inkscape:document-units="pt"
     showgrid="false"
     inkscape:zoom="0.29857056"
     inkscape:cx="72.00978"
     inkscape:cy="1122.0128"
     inkscape:window-width="2560"
     inkscape:window-height="1377"
     inkscape:window-x="-8"
     inkscape:window-y="-8"
     inkscape:window-maximized="1"
     inkscape:current-layer="g18" /><metadata
     id="metadata14">
Created by potrace 1.15, written by Peter Selinger 2001-2017
</metadata><g
     transform="translate(0.000000,1280.000000) scale(0.100000,-0.100000)"
     fill="#03a9f4"
     stroke="none"
     id="g18"><path
       d="M3700 12789 c-604 -45 -1196 -221 -1695 -504 -913 -518 -1599 -1391 -1864 -2375 -58 -212 -95 -412 -122 -660 -17 -150 -17 -632 -1 -775 62 -536 213 -994 498 -1510 444 -806 507 -910 1103 -1823 397 -609 616 -961 825 -1326 703 -1225 1156 -2385 1422 -3634 l39 -182 110 0 111 0 48 228 c281 1350 770 2539 1625 3954 169 281 331 536 656 1033 457 699 644 1000 810 1304 133 245 442 879 502 1031 372 943 312 2106 -157 3040 -395 789 -1032 1421 -1806 1795 -642 310 -1405 457 -2104 404z"
       id="path16" /><path
       d="M 3995.6458,11300.135 C 3959.8176,11233.21 3620.6433,10480.3 2748.8226,8532.2936 2199.4564,7303.7353 2053.7547,7012.1319 1919.996,6861.5499 c -100.3192,-114.7292 -238.855,-203.1664 -365.4482,-227.0683 -54.9366,-11.9509 -74.045,-31.0725 -78.8221,-81.2664 l -7.1657,-64.5353 h 800.1643 802.5526 v 59.7547 c 0,64.5353 -14.3314,69.3158 -236.4665,95.6078 -272.2947,31.0725 -384.5566,136.241 -384.5566,360.9189 0,141.0213 28.6627,229.4583 183.9185,590.3772 l 112.2618,255.7505 835.9924,-4.7804 835.9925,-7.1706 179.1413,-418.2835 c 284.2375,-669.2535 262.7406,-762.471 -186.3068,-803.1041 -157.6444,-14.3413 -169.5871,-21.5117 -169.5871,-71.7058 v -57.3647 H 5400.1132 6558.56 v 59.7547 c 0,45.4138 -16.7199,62.1451 -64.4909,74.0961 -226.9123,50.194 -308.123,112.339 -453.8245,353.7483 -50.1596,78.8763 -508.7611,1097.0977 -1022.2995,2258.7308 -511.1497,1164.0232 -943.4771,2117.7092 -960.197,2122.4902 -14.3314,7.17 -42.9939,-19.122 -62.1023,-57.365 z m -42.994,-2392.5815 c 186.307,-425.454 336.7856,-779.2024 336.7856,-783.9827 0,-4.7804 -317.6771,-9.5607 -704.6222,-9.5607 -386.9451,0 -704.6224,7.1705 -704.6224,16.7313 0,47.8038 704.6224,1582.3066 718.9536,1567.9654 9.5542,-9.5607 169.587,-368.0894 353.5054,-791.1533 z"
       id="path518-2"
       style="display:none;fill:#ffffff;stroke-width:2.38938;image-rendering:auto" /><path
       d="m 1468.56,11299.947 c 0,-56.287 13.8429,-61.182 188.2622,-75.865 102.4367,-9.789 227.022,-26.919 276.8561,-41.602 110.7425,-29.368 240.8648,-141.941 268.5504,-232.489 35.9914,-110.125 49.8342,-3685.5371 13.8429,-3910.6829 -24.917,-163.9648 -41.5285,-205.5678 -113.511,-271.6431 -88.594,-80.7589 -235.3277,-132.1508 -376.5244,-132.1508 -179.9565,0 -257.4762,-26.9196 -257.4762,-88.1005 V 6488.68 h 1558.7 c 1730.3508,0 1960.1414,14.6834 2405.8797,146.8342 343.3017,102.7839 526.0268,198.2261 744.7431,389.1106 304.5418,269.1959 426.3585,594.6783 365.4501,969.1055 -74.7511,469.8693 -418.0528,765.985 -1115.7302,966.6583 -143.9653,39.1558 -282.3933,73.4171 -310.0789,73.4171 -105.2053,0 -41.5285,41.603 121.8167,83.2061 454.0441,112.5728 822.2627,352.402 974.5336,633.8337 312.8475,584.8895 -166.1136,1336.1915 -968.9965,1519.7345 -315.616,70.969 -739.2058,88.1 -2256.3774,88.1 H 1468.56 Z m 2505.5481,-234.935 c 429.1268,-44.051 717.0572,-205.569 869.3281,-489.447 66.4455,-122.363 71.9826,-161.518 71.9826,-440.503 0,-278.9846 -5.5371,-318.1408 -71.9826,-440.5021 -38.7598,-75.8648 -110.7424,-176.2016 -157.8079,-222.6989 -182.7251,-183.5427 -595.2406,-313.2463 -1007.7563,-315.6935 h -160.5766 v 966.6585 966.658 h 105.2053 c 55.3713,0 215.9478,-12.236 351.6074,-24.472 z m -13.8429,-2202.5128 c 395.9042,-34.2613 603.5464,-97.8895 786.2714,-247.1709 268.5505,-215.3568 395.9042,-533.4976 368.2186,-903.0302 -44.2969,-565.3116 -487.2667,-934.8442 -1129.5729,-939.7387 -227.022,-2.4472 -315.616,29.3669 -404.2099,149.2814 -44.2971,61.1809 -49.8341,156.6231 -58.1398,1015.6031 l -8.3057,949.5276 h 91.3625 c 49.8341,0 210.4107,-12.2362 354.3758,-24.4723 z"
       id="path526-6"
       style="display:none;fill:#ffffff;stroke-width:2.60296" /><path
       d="m 398.64855,146.47992 c -99.09255,14.08754 -181.12818,66.21141 -223.36436,142.0493 -20.0351,35.92321 -28.42819,68.08975 -28.42819,107.53485 0,31.46216 3.24894,50.48033 12.725,75.60309 14.62021,38.74072 36.00904,69.02892 67.41543,95.32565 36.55053,30.2882 76.07925,47.89762 134.28936,60.10681 15.97393,3.52189 30.86489,4.22626 77.97447,3.99147 55.23191,0 59.29308,-0.46958 82.03563,-6.33939 41.69468,-11.03523 74.72554,-27.94027 107.75639,-54.94138 l 18.68138,-15.2615 v -20.19213 -19.95734 l -28.96968,24.41839 c -57.39787,48.3672 -96.38511,62.45474 -164.61277,60.10682 -48.4633,-1.64355 -75.53776,-11.27003 -104.77819,-37.33197 -56.58563,-49.77595 -77.70372,-181.4944 -43.86063,-274.47212 17.05691,-47.19324 45.75585,-77.71623 90.9702,-96.96919 34.11384,-14.55712 61.7298,-18.079 98.28032,-12.67878 67.95692,9.86127 118.31543,51.88908 141.05798,117.39611 3.51968,10.09607 4.87341,11.27003 11.91277,11.27003 H 655.856 V 225.13532 144.132 h -7.58085 c -6.76862,0 -8.12234,1.40875 -11.10054,9.1569 -1.62446,5.16543 -6.76861,11.9744 -11.37127,15.26149 -12.725,9.39169 -18.95213,9.1569 -63.35425,-3.75667 -17.86915,-5.16543 -42.77766,-11.27003 -55.50266,-13.85275 -26.26224,-5.16542 -85.55532,-7.74814 -108.29788,-4.46105 z"
       id="path516-9"
       style="fill:#ffffff;stroke-width:0.252129"
       transform="matrix(9.9999998,0,0,-9.9999998,0,12800)" /></g><g
     inkscape:groupmode="layer"
     id="layer1"
     inkscape:label="base" /><g
     transform="matrix(0.1,0,0,-0.1,1102.699,1379.7983)"
     fill="#ffffff"
     stroke="none"
     id="g568"><path
       d="m 5380,11430 c -366,-60 -669,-282 -825,-605 -74,-153 -105,-290 -105,-458 0,-134 12,-215 47,-322 54,-165 133,-294 249,-406 135,-129 281,-204 496,-256 59,-15 114,-18 288,-17 204,0 219,2 303,27 154,47 276,119 398,234 l 69,65 v 86 85 l -107,-104 c -212,-206 -356,-266 -608,-256 -179,7 -279,48 -387,159 -209,212 -287,773 -162,1169 63,201 169,331 336,413 126,62 228,77 363,54 251,-42 437,-221 521,-500 13,-43 18,-48 44,-48 h 30 v 345 345 h -28 c -25,0 -30,-6 -41,-39 -6,-22 -25,-51 -42,-65 -47,-40 -70,-39 -234,16 -66,22 -158,48 -205,59 -97,22 -316,33 -400,19 z"
       id="path516" /><path
       d="m 10980,11386 c 0,-22 5,-24 78,-30 86,-8 141,-33 176,-79 21,-28 21,-35 24,-810 2,-430 0,-805 -3,-834 -13,-104 -68,-148 -198,-159 -72,-7 -77,-8 -77,-30 v -24 h 520 520 v 24 c 0,22 -5,23 -76,30 -85,7 -144,33 -178,79 -20,28 -21,41 -24,424 l -3,396 81,-7 c 137,-11 253,-67 310,-152 39,-55 78,-172 87,-255 6,-57 7,-59 34,-59 h 29 v 500 500 h -28 c -27,0 -28,-3 -39,-71 -15,-96 -70,-206 -129,-258 -64,-56 -139,-82 -251,-89 l -93,-5 v 408 407 l 233,-5 c 246,-5 291,-12 391,-61 119,-58 185,-151 216,-304 17,-85 18,-87 46,-87 h 29 l 3,288 2,287 h -840 -840 z"
       id="path520" /><path
       d="m 6710,11377 c 0,-23 4,-25 86,-35 97,-13 145,-37 172,-85 16,-29 17,-95 20,-802 2,-423 0,-799 -3,-835 -6,-57 -11,-69 -44,-101 -39,-39 -102,-59 -186,-59 -41,0 -45,-2 -45,-25 v -25 h 544 c 588,0 629,3 806,56 177,54 304,128 416,246 78,81 128,159 175,274 61,149 74,224 73,419 0,149 -3,182 -26,271 -70,274 -219,469 -450,593 -91,49 -174,77 -303,103 -91,19 -150,21 -667,25 l -568,5 z m 1015,-108 c 182,-29 328,-177 405,-409 75,-230 82,-649 14,-905 -24,-90 -97,-233 -148,-291 -77,-87 -217,-144 -351,-143 -76,0 -123,17 -149,52 -21,28 -21,34 -24,859 -2,457 -1,837 2,845 5,11 23,13 98,8 51,-4 120,-11 153,-16 z"
       id="path522" /><path
       d="m 8940,11376 c 0,-23 4,-24 73,-28 126,-6 189,-57 202,-161 3,-29 5,-398 3,-822 -3,-694 -5,-773 -20,-800 -37,-68 -92,-95 -194,-95 h -64 v -30 -30 l 857,2 857,3 7,35 c 6,26 63,436 82,580 1,9 -8,16 -24,18 -24,3 -28,-3 -53,-75 -76,-217 -210,-351 -411,-412 -145,-45 -437,-48 -501,-6 -52,33 -54,54 -54,450 v 366 l 68,-7 c 206,-20 289,-125 348,-441 3,-18 11,-23 34,-23 h 30 v 525 525 h -29 c -31,0 -41,-14 -41,-58 0,-41 -34,-163 -62,-224 -54,-117 -139,-175 -272,-185 l -76,-6 v 408 408 l 213,-6 c 228,-8 289,-18 384,-64 113,-56 191,-168 231,-331 16,-67 19,-72 45,-72 h 27 v 290 290 h -830 -830 z"
       id="path524" /><path
       d="m 2360,11356 c 0,-23 5,-25 68,-31 37,-4 82,-11 100,-17 40,-12 87,-58 97,-95 13,-45 18,-1506 5,-1598 -9,-67 -15,-84 -41,-111 -32,-33 -85,-54 -136,-54 -65,0 -93,-11 -93,-36 v -24 h 563 c 625,0 708,6 869,60 124,42 190,81 269,159 110,110 154,243 132,396 -27,192 -151,313 -403,395 -52,16 -102,30 -112,30 -38,0 -15,17 44,34 164,46 297,144 352,259 113,239 -60,546 -350,621 -114,29 -267,36 -815,36 h -549 z m 905,-96 c 155,-18 259,-84 314,-200 24,-50 26,-66 26,-180 0,-114 -2,-130 -26,-180 -14,-31 -40,-72 -57,-91 -66,-75 -215,-128 -364,-129 h -58 v 395 395 h 38 c 20,0 78,-5 127,-10 z m -5,-900 c 143,-14 218,-40 284,-101 97,-88 143,-218 133,-369 -16,-231 -176,-382 -408,-384 -82,-1 -114,12 -146,61 -16,25 -18,64 -21,415 l -3,388 h 33 c 18,0 76,-5 128,-10 z"
       id="path526" /><path
       d="M 1045,9200 C 814,9153 631,9053 469,8883 289,8695 197,8482 183,8224 c -20,-371 121,-666 417,-876 89,-63 258,-144 350,-167 213,-54 515,-54 777,-1 104,21 292,77 367,109 l 44,20 4,268 c 3,247 5,271 23,302 30,51 65,72 144,84 68,11 72,13 69,37 l -3,25 h -485 -485 l -3,-27 c -3,-28 -3,-28 55,-28 40,0 74,-8 110,-24 88,-41 88,-39 91,-357 l 3,-278 -68,-20 c -359,-107 -666,17 -789,320 -116,285 -115,822 3,1117 104,259 309,392 583,379 121,-6 207,-31 313,-91 143,-80 289,-255 353,-422 26,-67 32,-74 57,-74 h 27 v 350 350 h -27 c -24,-1 -32,-9 -52,-51 -25,-55 -69,-89 -113,-89 -15,0 -96,25 -180,55 -84,31 -190,62 -236,70 -120,21 -371,19 -487,-5 z"
       id="path528" /><path
       d="m 7120,9166 c 0,-23 3,-24 83,-27 58,-3 93,-10 121,-25 66,-34 78,-60 87,-176 10,-135 10,-1076 0,-1333 -9,-224 -21,-267 -84,-305 -62,-38 -195,-22 -246,29 -32,32 -26,69 24,151 38,63 45,83 45,128 0,68 -18,108 -67,153 -105,95 -269,63 -335,-64 -34,-66 -32,-174 6,-252 60,-124 206,-234 357,-270 84,-19 259,-19 346,1 190,43 347,174 397,329 34,108 38,189 45,861 l 6,671 27,35 c 33,44 98,68 180,68 55,0 58,1 58,25 v 25 h -525 -525 z"
       id="path530" /><path
       d="m 8310,9166 c 0,-22 5,-24 73,-31 83,-8 141,-31 176,-68 21,-23 25,-41 33,-139 5,-62 8,-435 6,-828 -3,-702 -3,-716 -24,-755 -30,-57 -83,-84 -183,-92 -77,-6 -81,-7 -81,-29 v -24 h 510 510 v 24 c 0,22 -6,24 -70,34 -38,6 -86,20 -105,32 -68,42 -69,45 -73,436 l -4,351 40,31 40,32 259,-320 c 253,-314 326,-415 335,-465 10,-53 -24,-80 -124,-100 -22,-4 -28,-11 -28,-30 v -25 h 525 525 v 24 c 0,19 -7,26 -30,30 -16,3 -43,9 -60,12 -47,9 -139,76 -221,160 -43,44 -244,286 -449,538 -300,372 -369,461 -358,471 23,22 609,486 715,566 125,95 148,107 232,123 61,11 66,14 69,39 l 3,27 h -396 -396 l 3,-27 c 2,-19 9,-29 23,-30 11,-1 46,-5 78,-8 142,-16 159,-124 39,-237 -46,-44 -806,-648 -816,-648 -4,0 -6,172 -4,383 4,403 4,402 52,456 27,30 57,42 126,50 51,6 55,8 58,34 l 3,27 h -505 -506 z"
       id="path532" /><path
       d="m 2797,9163 c -4,-3 -7,-17 -7,-30 0,-22 3,-23 68,-23 53,0 79,-6 120,-26 94,-47 87,26 87,-914 v -825 l -23,-36 c -31,-51 -81,-72 -174,-77 -74,-4 -78,-5 -78,-28 v -24 h 520 520 v 25 c 0,24 -3,25 -57,25 -32,0 -75,5 -96,11 -54,15 -106,65 -117,114 -5,22 -10,205 -10,408 v 367 h 351 350 l -3,-392 c -3,-388 -3,-393 -26,-429 -30,-50 -99,-79 -186,-79 -64,0 -66,-1 -66,-25 v -25 h 520 520 v 25 c 0,24 -3,25 -57,25 -124,0 -199,48 -214,136 -12,73 -11,1540 1,1605 18,93 85,138 203,139 h 68 l -3,28 -3,27 h -515 -515 l -3,-27 -3,-28 h 68 c 54,0 80,-6 121,-26 89,-44 87,-34 90,-456 l 3,-368 h -350 -351 v 338 c 0,196 5,356 11,382 19,85 89,129 202,130 h 67 v 30 30 h -513 c -283,0 -517,-3 -520,-7 z"
       id="path534" /><path
       d="m 5410,9146 c 0,-22 5,-23 77,-30 56,-4 88,-13 121,-32 82,-48 77,6 77,-904 0,-800 0,-805 -21,-851 -27,-58 -79,-85 -181,-95 -68,-6 -73,-8 -73,-30 v -24 h 520 520 v 24 c 0,22 -5,24 -72,30 -84,7 -152,37 -182,79 -21,28 -21,40 -24,835 -2,444 0,821 3,839 7,41 50,92 92,109 18,8 67,17 108,21 70,6 75,7 75,29 v 24 h -520 -520 z"
       id="path536" /></g></svg>
