<?xml version="1.0" encoding="UTF-8" standalone="no"?>
<svg
   version="1.0"
   width="801.000000pt"
   height="1280.000000pt"
   viewBox="0 0 801.000000 1280.000000"
   preserveAspectRatio="xMidYMid meet"
   id="svg20"
   sodipodi:docname="marker_J.svg"
   xml:space="preserve"
   inkscape:version="1.2 (dc2aedaf03, 2022-05-15)"
   xmlns:inkscape="http://www.inkscape.org/namespaces/inkscape"
   xmlns:sodipodi="http://sodipodi.sourceforge.net/DTD/sodipodi-0.dtd"
   xmlns="http://www.w3.org/2000/svg"
   xmlns:svg="http://www.w3.org/2000/svg"><defs
     id="defs24" /><sodipodi:namedview
     id="namedview22"
     pagecolor="#ffffff"
     bordercolor="#000000"
     borderopacity="0.25"
     inkscape:showpageshadow="2"
     inkscape:pageopacity="0.0"
     inkscape:pagecheckerboard="0"
     inkscape:deskcolor="#d1d1d1"
     inkscape:document-units="pt"
     showgrid="false"
     inkscape:zoom="0.29857056"
     inkscape:cx="72.00978"
     inkscape:cy="1122.0128"
     inkscape:window-width="2560"
     inkscape:window-height="1377"
     inkscape:window-x="-8"
     inkscape:window-y="-8"
     inkscape:window-maximized="1"
     inkscape:current-layer="g18" /><metadata
     id="metadata14">
Created by potrace 1.15, written by Peter Selinger 2001-2017
</metadata><g
     transform="translate(0.000000,1280.000000) scale(0.100000,-0.100000)"
     fill="#03a9f4"
     stroke="none"
     id="g18"><path
       d="M 3700,12789 C 3096,12744 2504,12568 2005,12285 1092,11767 406,10894 141,9910 83,9698 46,9498 19,9250 2,9100 2,8618 18,8475 80,7939 231,7481 516,6965 960,6159 1023,6055 1619,5142 2016,4533 2235,4181 2444,3816 3147,2591 3600,1431 3866,182 L 3905,0 h 110 111 l 48,228 c 281,1350 770,2539 1625,3954 169,281 331,536 656,1033 457,699 644,1000 810,1304 133,245 442,879 502,1031 372,943 312,2106 -157,3040 -395,789 -1032,1421 -1806,1795 -642,310 -1405,457 -2104,404 z"
       id="path16"
       sodipodi:insensitive="true" /><path
       d="M 3995.6458,11300.135 C 3959.8176,11233.21 3620.6433,10480.3 2748.8226,8532.2936 2199.4564,7303.7353 2053.7547,7012.1319 1919.996,6861.5499 c -100.3192,-114.7292 -238.855,-203.1664 -365.4482,-227.0683 -54.9366,-11.9509 -74.045,-31.0725 -78.8221,-81.2664 l -7.1657,-64.5353 h 800.1643 802.5526 v 59.7547 c 0,64.5353 -14.3314,69.3158 -236.4665,95.6078 -272.2947,31.0725 -384.5566,136.241 -384.5566,360.9189 0,141.0213 28.6627,229.4583 183.9185,590.3772 l 112.2618,255.7505 835.9924,-4.7804 835.9925,-7.1706 179.1413,-418.2835 c 284.2375,-669.2535 262.7406,-762.471 -186.3068,-803.1041 -157.6444,-14.3413 -169.5871,-21.5117 -169.5871,-71.7058 v -57.3647 H 5400.1132 6558.56 v 59.7547 c 0,45.4138 -16.7199,62.1451 -64.4909,74.0961 -226.9123,50.194 -308.123,112.339 -453.8245,353.7483 -50.1596,78.8763 -508.7611,1097.0977 -1022.2995,2258.7308 -511.1497,1164.0232 -943.4771,2117.7092 -960.197,2122.4902 -14.3314,7.17 -42.9939,-19.122 -62.1023,-57.365 z m -42.994,-2392.5815 c 186.307,-425.454 336.7856,-779.2024 336.7856,-783.9827 0,-4.7804 -317.6771,-9.5607 -704.6222,-9.5607 -386.9451,0 -704.6224,7.1705 -704.6224,16.7313 0,47.8038 704.6224,1582.3066 718.9536,1567.9654 9.5542,-9.5607 169.587,-368.0894 353.5054,-791.1533 z"
       id="path518-2"
       style="display:none;fill:#ffffff;stroke-width:2.38938;image-rendering:auto"
       inkscape:label="A" /><path
       d="m 1468.56,11299.947 c 0,-56.287 13.8429,-61.182 188.2622,-75.865 102.4367,-9.789 227.022,-26.919 276.8561,-41.602 110.7425,-29.368 240.8648,-141.941 268.5504,-232.489 35.9914,-110.125 49.8342,-3685.5371 13.8429,-3910.6829 -24.917,-163.9648 -41.5285,-205.5678 -113.511,-271.6431 -88.594,-80.7589 -235.3277,-132.1508 -376.5244,-132.1508 -179.9565,0 -257.4762,-26.9196 -257.4762,-88.1005 V 6488.68 h 1558.7 c 1730.3508,0 1960.1414,14.6834 2405.8797,146.8342 343.3017,102.7839 526.0268,198.2261 744.7431,389.1106 304.5418,269.1959 426.3585,594.6783 365.4501,969.1055 -74.7511,469.8693 -418.0528,765.985 -1115.7302,966.6583 -143.9653,39.1558 -282.3933,73.4171 -310.0789,73.4171 -105.2053,0 -41.5285,41.603 121.8167,83.2061 454.0441,112.5728 822.2627,352.402 974.5336,633.8337 312.8475,584.8895 -166.1136,1336.1915 -968.9965,1519.7345 -315.616,70.969 -739.2058,88.1 -2256.3774,88.1 H 1468.56 Z m 2505.5481,-234.935 c 429.1268,-44.051 717.0572,-205.569 869.3281,-489.447 66.4455,-122.363 71.9826,-161.518 71.9826,-440.503 0,-278.9846 -5.5371,-318.1408 -71.9826,-440.5021 -38.7598,-75.8648 -110.7424,-176.2016 -157.8079,-222.6989 -182.7251,-183.5427 -595.2406,-313.2463 -1007.7563,-315.6935 h -160.5766 v 966.6585 966.658 h 105.2053 c 55.3713,0 215.9478,-12.236 351.6074,-24.472 z m -13.8429,-2202.5128 c 395.9042,-34.2613 603.5464,-97.8895 786.2714,-247.1709 268.5505,-215.3568 395.9042,-533.4976 368.2186,-903.0302 -44.2969,-565.3116 -487.2667,-934.8442 -1129.5729,-939.7387 -227.022,-2.4472 -315.616,29.3669 -404.2099,149.2814 -44.2971,61.1809 -49.8341,156.6231 -58.1398,1015.6031 l -8.3057,949.5276 h 91.3625 c 49.8341,0 210.4107,-12.2362 354.3758,-24.4723 z"
       id="path526-6"
       style="display:none;fill:#ffffff;stroke-width:2.60296"
       inkscape:label="B" /><path
       d="m 398.64855,146.47992 c -99.09255,14.08754 -181.12818,66.21141 -223.36436,142.0493 -20.0351,35.92321 -28.42819,68.08975 -28.42819,107.53485 0,31.46216 3.24894,50.48033 12.725,75.60309 14.62021,38.74072 36.00904,69.02892 67.41543,95.32565 36.55053,30.2882 76.07925,47.89762 134.28936,60.10681 15.97393,3.52189 30.86489,4.22626 77.97447,3.99147 55.23191,0 59.29308,-0.46958 82.03563,-6.33939 41.69468,-11.03523 74.72554,-27.94027 107.75639,-54.94138 l 18.68138,-15.2615 v -20.19213 -19.95734 l -28.96968,24.41839 c -57.39787,48.3672 -96.38511,62.45474 -164.61277,60.10682 -48.4633,-1.64355 -75.53776,-11.27003 -104.77819,-37.33197 -56.58563,-49.77595 -77.70372,-181.4944 -43.86063,-274.47212 17.05691,-47.19324 45.75585,-77.71623 90.9702,-96.96919 34.11384,-14.55712 61.7298,-18.079 98.28032,-12.67878 67.95692,9.86127 118.31543,51.88908 141.05798,117.39611 3.51968,10.09607 4.87341,11.27003 11.91277,11.27003 H 655.856 V 225.13532 144.132 h -7.58085 c -6.76862,0 -8.12234,1.40875 -11.10054,9.1569 -1.62446,5.16543 -6.76861,11.9744 -11.37127,15.26149 -12.725,9.39169 -18.95213,9.1569 -63.35425,-3.75667 -17.86915,-5.16543 -42.77766,-11.27003 -55.50266,-13.85275 -26.26224,-5.16542 -85.55532,-7.74814 -108.29788,-4.46105 z"
       id="path516-9"
       style="display:none;fill:#ffffff;stroke-width:0.252129"
       transform="matrix(9.9999998,0,0,-9.9999998,0,12800)"
       inkscape:label="C" /><path
       d="m 1468.56,11297.561 c 0,-56.23 10.109,-61.12 217.3429,-85.568 245.1426,-31.782 366.4503,-90.457 434.6859,-207.806 40.4359,-70.899 42.9631,-232.254 50.5449,-1960.7125 5.0545,-1034.1421 0,-1953.3789 -7.5818,-2041.391 -15.1634,-139.3524 -27.7996,-168.6897 -111.1987,-246.9226 -98.5625,-95.3464 -257.7788,-144.242 -470.0672,-144.242 -103.617,0 -113.726,-4.8895 -113.726,-61.1194 V 6488.68 h 1374.8204 c 1486.0192,0 1589.6362,7.3343 2036.9582,136.9076 447.3221,132.0181 768.2821,312.9317 1051.3333,601.4156 197.125,198.0271 323.4872,388.7198 442.2676,669.8694 154.1619,364.2727 187.016,547.6311 184.4888,1024.363 0,364.272 -7.5817,444.9497 -65.7083,662.535 -176.9071,669.8694 -553.4664,1146.6014 -1137.2596,1449.7534 -229.9791,119.795 -439.7403,188.248 -765.7547,251.813 -229.9792,46.45 -379.0866,51.34 -1685.6714,61.119 L 1468.56,11358.68 Z m 2565.1521,-264.037 c 459.9583,-70.898 828.9358,-432.725 1023.5336,-999.914 189.5432,-562.2992 207.2339,-1586.6615 35.3814,-2212.5256 -60.6538,-220.0301 -245.1426,-569.6334 -374.032,-711.4306 -194.5978,-212.6957 -548.4119,-352.0481 -887.0625,-349.6034 -192.0705,0 -310.8509,41.5613 -376.5593,127.1285 -53.0721,68.4538 -53.0721,83.1225 -60.6538,2100.0657 -5.0545,1117.2644 -2.5272,2046.2794 5.0545,2065.8384 12.6362,26.892 58.1266,31.782 247.6698,19.558 128.8895,-9.779 303.2693,-26.893 386.6683,-39.117 z"
       id="path522"
       style="display:none;fill:#ffffff;stroke-width:2.48567"
       inkscape:label="D" /><path
       d="m 1468.56,11299.946 c 0,-56.286 11.2918,-58.733 206.0757,-68.522 355.6923,-14.684 533.5384,-139.493 570.2368,-394.005 8.4689,-70.97 14.1148,-974.0001 8.4689,-2011.6281 -8.4689,-1698.3824 -14.1148,-1891.714 -56.4591,-1957.7893 -104.4493,-166.4121 -259.7118,-232.4875 -547.6532,-232.4875 H 1468.56 v -73.417 -73.4171 l 2419.2721,4.8945 2419.2721,7.3417 19.7607,85.6532 c 16.9378,63.6282 177.8462,1066.9948 231.4823,1419.3968 2.823,22.0251 -22.5836,39.1565 -67.7509,44.051 -67.7509,7.3417 -79.0427,-7.3417 -149.6166,-183.5434 C 6126.4351,7335.4236 5748.1592,7007.494 5180.7453,6858.2126 4771.4169,6748.087 3947.1142,6740.7453 3766.4451,6843.5292 c -146.7937,80.7588 -152.4396,132.1507 -152.4396,1101.2561 v 895.689 l 191.9609,-17.1306 c 581.5287,-48.9447 815.8339,-305.9045 982.3883,-1079.2317 8.4688,-44.0503 31.0525,-56.2865 95.9804,-56.2865 h 84.6886 v 1284.7996 1284.7989 h -81.8656 c -87.5116,0 -115.7412,-34.261 -115.7412,-141.94 0,-100.336 -95.9804,-398.8992 -175.0232,-548.1806 -152.4395,-286.3266 -392.3907,-428.2663 -767.8436,-452.7386 l -214.5446,-14.6835 v 998.4727 998.472 l 601.2894,-14.684 c 643.6336,-19.578 815.8338,-44.05 1084.0145,-156.623 318.9939,-137.045 539.1844,-411.135 652.1026,-810.035 45.1672,-163.9646 53.6361,-176.2008 127.0329,-176.2008 h 76.2198 v 709.6988 709.698 H 3811.6123 1468.56 Z"
       id="path524"
       style="display:none;fill:#ffffff;stroke-width:2.6284"
       transform="translate(0,-2.5e-4)"
       inkscape:label="E" /><path
       d="m 1468.56,11299.946 c 0,-53.839 15.1488,-58.733 236.3214,-73.417 260.5596,-19.578 427.1965,-80.759 533.2381,-193.331 63.625,-68.523 63.625,-85.654 72.7143,-1982.2614 6.0595,-1052.3121 0,-1970.0255 -9.0893,-2040.9954 -39.3869,-254.5125 -206.0238,-362.1909 -599.8928,-389.1105 -218.1429,-17.1306 -233.2917,-19.5779 -233.2917,-73.417 V 6488.68 h 1575.4762 1575.4762 v 58.7337 c 0,53.8391 -15.1488,56.2864 -230.2619,73.417 -257.5298,17.1307 -436.2857,80.7588 -539.2976,193.3317 -60.5953,68.5226 -63.625,100.3366 -72.7143,1037.6279 l -9.0893,969.1062 245.4107,-17.1307 c 415.0774,-26.9196 766.5298,-163.9648 939.2262,-371.9798 118.1607,-134.598 236.3214,-420.9253 263.5893,-624.0459 18.1785,-139.4924 21.2083,-144.3869 103.0119,-144.3869 h 87.8631 V 8886.9718 10110.59 h -84.8334 c -81.8035,0 -84.8333,-7.342 -118.1607,-173.754 -45.4464,-234.9346 -212.0833,-504.1306 -390.8393,-631.3868 -193.9047,-137.0453 -421.1369,-200.6734 -760.4702,-217.804 L 3771.179,9075.409 v 998.472 996.025 l 705.9346,-12.236 c 745.3214,-12.236 881.6607,-29.367 1184.6369,-149.281 360.5416,-141.94 560.5059,-369.533 654.4285,-743.96 51.506,-208.0151 54.5358,-212.9096 139.3691,-212.9096 h 87.8631 l 9.0893,704.8036 6.0595,702.357 h -2545 -2545 z"
       id="path520"
       style="display:none;fill:#ffffff;stroke-width:2.72296"
       transform="translate(0,-2.5e-4)"
       inkscape:label="F" /><path
       d="m 3469.4508,11311.845 c -535.0441,-110.063 -958.9102,-344.24 -1334.136,-742.341 -416.9175,-440.252 -630.0086,-939.0483 -662.4355,-1543.2243 -46.3242,-868.7957 280.2612,-1559.6171 965.8588,-2051.3882 206.1426,-147.5313 597.5818,-337.2145 810.6729,-391.0751 493.3524,-126.4555 1192.8473,-126.4555 1799.6939,-2.3418 240.8857,49.1771 676.3328,180.3161 850.0485,255.2526 l 101.9131,46.8354 9.2649,627.5936 c 6.9486,578.4166 11.581,634.619 53.2727,707.2138 69.4863,119.4301 150.5536,168.6072 333.534,196.7084 157.5022,25.7595 166.767,30.443 159.8184,86.6454 l -6.9486,58.5442 H 5426.6469 4303.2858 l -6.9486,-63.2277 c -6.9486,-65.5695 -6.9486,-65.5695 127.3915,-65.5695 92.6483,0 171.3994,-18.7341 254.7829,-56.2024 203.8263,-96.0125 203.8263,-91.3289 210.7749,-836.011 l 6.9487,-651.0113 -157.5022,-46.8353 c -831.5188,-250.5691 -1542.5948,39.81 -1827.4884,749.3655 -268.6801,667.4037 -266.3639,1924.9328 6.9486,2615.7537 240.8857,606.518 715.7084,917.973 1350.3495,887.53 280.2612,-14.05 479.4551,-72.594 724.9732,-213.101 331.2178,-187.341 669.3842,-597.15 817.6215,-988.2254 60.2215,-156.8984 74.1187,-173.2908 132.0239,-173.2908 h 62.5376 v 819.6182 819.619 h -62.5376 c -55.589,-2.342 -74.1187,-21.076 -120.4428,-119.43 -57.9052,-128.797 -159.8184,-208.417 -261.7316,-208.417 -34.7431,0 -222.356,58.544 -416.9175,128.797 -194.5615,72.595 -440.0795,145.189 -546.6251,163.923 -277.945,49.178 -859.3133,44.494 -1127.9935,-11.708 z"
       id="path528"
       style="display:none;fill:#ffffff;stroke-width:2.32895"
       transform="translate(0,-2.5e-4)"
       inkscape:label="G" /><path
       d="m 1484.6023,11341.549 c -9.167,-7.341 -16.0423,-41.603 -16.0423,-73.417 0,-53.839 6.8753,-56.286 155.8397,-56.286 121.4633,0 181.0491,-14.684 275.0113,-63.628 215.4255,-115.02 199.3831,63.628 199.3831,-2236.7742 V 6892.474 l -52.7105,-88.1005 c -71.0445,-124.8091 -185.6326,-176.201 -398.7663,-188.4372 -169.5903,-9.789 -178.7573,-12.2362 -178.7573,-68.5226 V 6488.68 h 1191.7154 1191.7155 v 61.1809 c 0,58.7337 -6.8753,61.1809 -130.6304,61.1809 -73.3363,0 -171.882,12.2362 -220.009,26.9196 -123.755,36.7085 -242.9266,159.0704 -268.1359,278.9849 -11.4588,53.8392 -22.9176,501.6834 -22.9176,998.4724 v 898.1357 h 804.4079 802.1161 l -6.8752,-959.3166 c -6.8753,-949.5276 -6.8753,-961.7638 -59.5858,-1049.8643 -68.7528,-122.3618 -226.8843,-193.3317 -426.2675,-193.3317 -146.6726,0 -151.2561,-2.4472 -151.2561,-61.1809 V 6488.68 h 1191.7154 1191.7154 v 61.1809 c 0,58.7337 -6.8752,61.1809 -130.6303,61.1809 -284.1783,0 -456.0603,117.4673 -490.4367,332.8241 -27.5012,178.6483 -25.2094,3768.7441 2.2917,3927.8141 41.2517,227.593 194.7997,337.719 465.2274,340.166 H 6558.56 l -6.8753,68.522 -6.8753,66.076 H 5364.5528 4184.2962 l -6.8753,-66.076 -6.8753,-68.522 h 155.8397 c 123.7551,0 183.3408,-14.684 277.303,-63.628 203.9667,-107.679 199.3832,-83.206 206.2585,-1115.94 l 6.8752,-900.5829 H 4014.7059 3210.298 v 827.1658 c 0,479.6581 11.4588,871.2161 25.2093,934.8441 43.5435,208.015 203.9667,315.694 462.9356,318.141 h 153.548 v 73.417 73.417 H 2676.3178 c -648.5682,0 -1184.8402,-7.342 -1191.7155,-17.131 z"
       id="path534"
       style="display:none;fill:#ffffff;stroke-width:2.36823"
       transform="translate(0,-2.5e-4)"
       inkscape:label="H" /><path
       d="m 2473.3476,11299.946 c 0,-53.839 14.4231,-56.286 222.1155,-73.417 161.5384,-9.789 253.8461,-31.814 349.0384,-78.311 236.5385,-117.468 222.1154,14.683 222.1154,-2212.3021 0,-1957.789 0,-1970.0251 -60.577,-2082.598 -77.8846,-141.9397 -227.8845,-208.0151 -522.1154,-232.4874 -196.1538,-14.6835 -210.5769,-19.5779 -210.5769,-73.4171 v -58.7337 h 1500 1500 v 58.7337 c 0,53.8392 -14.4231,58.7336 -207.6923,73.4171 -242.3077,17.1306 -438.4615,90.5477 -525,193.3316 -60.5769,68.5226 -60.5769,97.8895 -69.2308,2043.4422 -5.7692,1086.5729 0,2009.1817 8.6539,2053.2317 20.1924,100.336 144.2308,225.146 265.3846,266.749 51.9231,19.577 193.2692,41.603 311.5385,51.391 201.923,14.684 216.3461,17.131 216.3461,70.97 v 58.734 h -1500 -1500 z"
       id="path536"
       style="display:none;fill:#ffffff;stroke-width:2.65694"
       inkscape:label="I" /><path
       d="m 2862.7149,11301.079 c 0,-55.201 10.5595,-57.601 292.1477,-64.801 204.1515,-7.201 327.3463,-24.001 425.9022,-60.002 232.3102,-81.601 274.5485,-144.002 306.2271,-422.408 35.1986,-324.006 35.1986,-2582.4497 0,-3199.2616 -31.6786,-537.6104 -73.9169,-640.8124 -295.6676,-732.0142 -218.2308,-91.2017 -686.3712,-52.801 -865.8837,69.6014 -112.6353,76.8015 -91.5161,165.6032 84.4765,362.407 133.7544,151.2029 158.3933,199.2038 158.3933,307.2059 0,163.2032 -63.3573,259.205 -235.8301,367.2071 -369.5845,228.0045 -946.8403,151.203 -1179.1506,-153.6029 -119.6749,-158.4031 -112.6352,-417.6081 21.1192,-604.8117 211.1911,-297.6058 725.0896,-561.6109 1256.5873,-648.0126 295.6676,-45.6009 911.6418,-45.6009 1217.869,2.4001 668.7719,103.202 1221.3888,417.6081 1397.3814,789.6153 119.675,259.205 133.7544,453.6087 158.3933,2066.4399 l 21.1192,1610.4313 95.036,84.002 c 116.1551,105.602 344.9455,163.203 633.5734,163.203 193.5919,0 204.1515,2.4 204.1515,60.001 v 60.001 H 4710.6374 2862.7149 Z"
       id="path530"
       style="display:inline;fill:#ffffff;stroke-width:2.90652"
       inkscape:label="J" /><path
       d="m 1468.56,11299.946 c 0,-53.839 10.8761,-58.733 158.7906,-75.864 180.5427,-19.578 306.7051,-75.864 382.8376,-166.412 45.6795,-56.286 54.3803,-100.337 71.7821,-340.166 10.876,-151.729 17.4017,-1064.5476 13.0512,-2026.3114 -6.5256,-1717.9598 -6.5256,-1752.2211 -52.2051,-1847.6634 C 1977.56,6704.0368 1862.2737,6637.9614 1644.7523,6618.3835 1477.2609,6603.7001 1468.56,6601.2529 1468.56,6547.4137 V 6488.68 h 1109.359 1109.3589 v 58.7337 c 0,53.8392 -13.0512,58.7336 -152.2649,83.206 -82.6581,14.6834 -187.0684,48.9447 -228.3974,78.3116 -147.9146,102.7839 -150.0898,110.1256 -158.7906,1066.9949 l -8.7009,858.9799 87.0085,75.8644 87.0086,78.3115 563.3803,-783.1156 c 550.3291,-768.4321 709.1197,-1015.603 728.6966,-1137.9648 21.7522,-129.7035 -52.2051,-195.7789 -269.7265,-244.7236 -47.8547,-9.789 -60.906,-26.9196 -60.906,-73.4171 V 6488.68 H 5416.5728 6558.56 v 58.7337 c 0,46.4975 -15.2265,63.6281 -65.2564,73.4171 -34.8034,7.3417 -93.5342,22.0251 -130.5128,29.3668 -102.2351,22.0251 -302.3547,185.9899 -480.7223,391.5578 -93.5341,107.6784 -530.7521,699.9095 -976.6709,1316.613 -652.5641,910.3719 -802.6538,1128.1759 -778.7265,1152.6483 50.0299,53.8392 1324.7051,1189.3563 1555.2778,1385.1353 271.9017,232.488 321.9316,261.855 504.6496,301.01 132.688,26.92 143.5641,34.262 150.0897,95.443 l 6.5256,66.075 h -861.3846 -861.3846 l 6.5257,-66.075 c 4.3504,-46.498 19.5769,-70.97 50.0299,-73.417 23.9273,-2.448 100.0598,-12.237 169.6666,-19.578 308.8804,-39.156 345.859,-303.458 84.8334,-579.995 -100.0599,-107.679 -1753.2223,-1585.8094 -1774.9744,-1585.8094 -8.7008,0 -13.0513,420.9247 -8.7008,937.2915 8.7008,986.2359 8.7008,983.7889 113.1111,1115.9399 58.7307,73.417 123.9871,102.784 274.0769,122.362 110.9359,14.683 119.6367,19.577 126.1624,83.206 l 6.5256,66.075 H 2569.2181 1468.56 Z"
       id="path532"
       style="display:none;fill:#ffffff;stroke-width:2.30722"
       inkscape:label="K" /></g><g
     inkscape:groupmode="layer"
     id="layer1"
     inkscape:label="base" /><g
     transform="matrix(0.1,0,0,-0.1,1102.699,1379.7983)"
     fill="#ffffff"
     stroke="none"
     id="g568" /></svg>
