<?xml version="1.0" encoding="UTF-8" standalone="no"?>
<svg
   version="1.0"
   width="801.000000pt"
   height="1280.000000pt"
   viewBox="0 0 801.000000 1280.000000"
   preserveAspectRatio="xMidYMid meet"
   id="svg20"
   sodipodi:docname="marker_A.svg"
   xml:space="preserve"
   inkscape:version="1.2 (dc2aedaf03, 2022-05-15)"
   xmlns:inkscape="http://www.inkscape.org/namespaces/inkscape"
   xmlns:sodipodi="http://sodipodi.sourceforge.net/DTD/sodipodi-0.dtd"
   xmlns="http://www.w3.org/2000/svg"
   xmlns:svg="http://www.w3.org/2000/svg"><defs
     id="defs24" /><sodipodi:namedview
     id="namedview22"
     pagecolor="#ffffff"
     bordercolor="#000000"
     borderopacity="0.25"
     inkscape:showpageshadow="2"
     inkscape:pageopacity="0.0"
     inkscape:pagecheckerboard="0"
     inkscape:deskcolor="#d1d1d1"
     inkscape:document-units="pt"
     showgrid="false"
     inkscape:zoom="0.29857056"
     inkscape:cx="72.00978"
     inkscape:cy="1122.0128"
     inkscape:window-width="2560"
     inkscape:window-height="1377"
     inkscape:window-x="-8"
     inkscape:window-y="-8"
     inkscape:window-maximized="1"
     inkscape:current-layer="g18" /><metadata
     id="metadata14">
Created by potrace 1.15, written by Peter Selinger 2001-2017
</metadata><g
     transform="translate(0.000000,1280.000000) scale(0.100000,-0.100000)"
     fill="#03a9f4"
     stroke="none"
     id="g18"><path
       d="M3700 12789 c-604 -45 -1196 -221 -1695 -504 -913 -518 -1599 -1391 -1864 -2375 -58 -212 -95 -412 -122 -660 -17 -150 -17 -632 -1 -775 62 -536 213 -994 498 -1510 444 -806 507 -910 1103 -1823 397 -609 616 -961 825 -1326 703 -1225 1156 -2385 1422 -3634 l39 -182 110 0 111 0 48 228 c281 1350 770 2539 1625 3954 169 281 331 536 656 1033 457 699 644 1000 810 1304 133 245 442 879 502 1031 372 943 312 2106 -157 3040 -395 789 -1032 1421 -1806 1795 -642 310 -1405 457 -2104 404z"
       id="path16" /><path
       d="M 3995.6458,11300.135 C 3959.8176,11233.21 3620.6433,10480.3 2748.8226,8532.2936 2199.4564,7303.7353 2053.7547,7012.1319 1919.996,6861.5499 c -100.3192,-114.7292 -238.855,-203.1664 -365.4482,-227.0683 -54.9366,-11.9509 -74.045,-31.0725 -78.8221,-81.2664 l -7.1657,-64.5353 h 800.1643 802.5526 v 59.7547 c 0,64.5353 -14.3314,69.3158 -236.4665,95.6078 -272.2947,31.0725 -384.5566,136.241 -384.5566,360.9189 0,141.0213 28.6627,229.4583 183.9185,590.3772 l 112.2618,255.7505 835.9924,-4.7804 835.9925,-7.1706 179.1413,-418.2835 c 284.2375,-669.2535 262.7406,-762.471 -186.3068,-803.1041 -157.6444,-14.3413 -169.5871,-21.5117 -169.5871,-71.7058 v -57.3647 H 5400.1132 6558.56 v 59.7547 c 0,45.4138 -16.7199,62.1451 -64.4909,74.0961 -226.9123,50.194 -308.123,112.339 -453.8245,353.7483 -50.1596,78.8763 -508.7611,1097.0977 -1022.2995,2258.7308 -511.1497,1164.0232 -943.4771,2117.7092 -960.197,2122.4902 -14.3314,7.17 -42.9939,-19.122 -62.1023,-57.365 z m -42.994,-2392.5815 c 186.307,-425.454 336.7856,-779.2024 336.7856,-783.9827 0,-4.7804 -317.6771,-9.5607 -704.6222,-9.5607 -386.9451,0 -704.6224,7.1705 -704.6224,16.7313 0,47.8038 704.6224,1582.3066 718.9536,1567.9654 9.5542,-9.5607 169.587,-368.0894 353.5054,-791.1533 z"
       id="path518-2"
       style="display:inline;fill:#ffffff;stroke-width:2.38938;image-rendering:auto" /><path
       d="m 1468.56,11299.947 c 0,-56.287 13.8429,-61.182 188.2622,-75.865 102.4367,-9.789 227.022,-26.919 276.8561,-41.602 110.7425,-29.368 240.8648,-141.941 268.5504,-232.489 35.9914,-110.125 49.8342,-3685.5371 13.8429,-3910.6829 -24.917,-163.9648 -41.5285,-205.5678 -113.511,-271.6431 -88.594,-80.7589 -235.3277,-132.1508 -376.5244,-132.1508 -179.9565,0 -257.4762,-26.9196 -257.4762,-88.1005 V 6488.68 h 1558.7 c 1730.3508,0 1960.1414,14.6834 2405.8797,146.8342 343.3017,102.7839 526.0268,198.2261 744.7431,389.1106 304.5418,269.1959 426.3585,594.6783 365.4501,969.1055 -74.7511,469.8693 -418.0528,765.985 -1115.7302,966.6583 -143.9653,39.1558 -282.3933,73.4171 -310.0789,73.4171 -105.2053,0 -41.5285,41.603 121.8167,83.2061 454.0441,112.5728 822.2627,352.402 974.5336,633.8337 312.8475,584.8895 -166.1136,1336.1915 -968.9965,1519.7345 -315.616,70.969 -739.2058,88.1 -2256.3774,88.1 H 1468.56 Z m 2505.5481,-234.935 c 429.1268,-44.051 717.0572,-205.569 869.3281,-489.447 66.4455,-122.363 71.9826,-161.518 71.9826,-440.503 0,-278.9846 -5.5371,-318.1408 -71.9826,-440.5021 -38.7598,-75.8648 -110.7424,-176.2016 -157.8079,-222.6989 -182.7251,-183.5427 -595.2406,-313.2463 -1007.7563,-315.6935 h -160.5766 v 966.6585 966.658 h 105.2053 c 55.3713,0 215.9478,-12.236 351.6074,-24.472 z m -13.8429,-2202.5128 c 395.9042,-34.2613 603.5464,-97.8895 786.2714,-247.1709 268.5505,-215.3568 395.9042,-533.4976 368.2186,-903.0302 -44.2969,-565.3116 -487.2667,-934.8442 -1129.5729,-939.7387 -227.022,-2.4472 -315.616,29.3669 -404.2099,149.2814 -44.2971,61.1809 -49.8341,156.6231 -58.1398,1015.6031 l -8.3057,949.5276 h 91.3625 c 49.8341,0 210.4107,-12.2362 354.3758,-24.4723 z"
       id="path526-6"
       style="display:none;fill:#ffffff;stroke-width:2.60296" /></g><g
     inkscape:groupmode="layer"
     id="layer1"
     inkscape:label="base" /><g
     transform="matrix(0.1,0,0,-0.1,1102.699,1379.7983)"
     fill="#ffffff"
     stroke="none"
     id="g568"><path
       d="m 5380,11430 c -366,-60 -669,-282 -825,-605 -74,-153 -105,-290 -105,-458 0,-134 12,-215 47,-322 54,-165 133,-294 249,-406 135,-129 281,-204 496,-256 59,-15 114,-18 288,-17 204,0 219,2 303,27 154,47 276,119 398,234 l 69,65 v 86 85 l -107,-104 c -212,-206 -356,-266 -608,-256 -179,7 -279,48 -387,159 -209,212 -287,773 -162,1169 63,201 169,331 336,413 126,62 228,77 363,54 251,-42 437,-221 521,-500 13,-43 18,-48 44,-48 h 30 v 345 345 h -28 c -25,0 -30,-6 -41,-39 -6,-22 -25,-51 -42,-65 -47,-40 -70,-39 -234,16 -66,22 -158,48 -205,59 -97,22 -316,33 -400,19 z"
       id="path516" /><path
       d="m 1157,11393 c -15,-28 -157,-343 -522,-1158 -230,-514 -291,-636 -347,-699 -42,-48 -100,-85 -153,-95 -23,-5 -31,-13 -33,-34 l -3,-27 h 335 336 v 25 c 0,27 -6,29 -99,40 -114,13 -161,57 -161,151 0,59 12,96 77,247 l 47,107 350,-2 350,-3 75,-175 c 119,-280 110,-319 -78,-336 -66,-6 -71,-9 -71,-30 v -24 h 485 485 v 25 c 0,19 -7,26 -27,31 -95,21 -129,47 -190,148 -21,33 -213,459 -428,945 -214,487 -395,886 -402,888 -6,3 -18,-8 -26,-24 z m -18,-1001 c 78,-178 141,-326 141,-328 0,-2 -133,-4 -295,-4 -162,0 -295,3 -295,7 0,20 295,662 301,656 4,-4 71,-154 148,-331 z"
       id="path518" /><path
       d="m 10980,11386 c 0,-22 5,-24 78,-30 86,-8 141,-33 176,-79 21,-28 21,-35 24,-810 2,-430 0,-805 -3,-834 -13,-104 -68,-148 -198,-159 -72,-7 -77,-8 -77,-30 v -24 h 520 520 v 24 c 0,22 -5,23 -76,30 -85,7 -144,33 -178,79 -20,28 -21,41 -24,424 l -3,396 81,-7 c 137,-11 253,-67 310,-152 39,-55 78,-172 87,-255 6,-57 7,-59 34,-59 h 29 v 500 500 h -28 c -27,0 -28,-3 -39,-71 -15,-96 -70,-206 -129,-258 -64,-56 -139,-82 -251,-89 l -93,-5 v 408 407 l 233,-5 c 246,-5 291,-12 391,-61 119,-58 185,-151 216,-304 17,-85 18,-87 46,-87 h 29 l 3,288 2,287 h -840 -840 z"
       id="path520" /><path
       d="m 6710,11377 c 0,-23 4,-25 86,-35 97,-13 145,-37 172,-85 16,-29 17,-95 20,-802 2,-423 0,-799 -3,-835 -6,-57 -11,-69 -44,-101 -39,-39 -102,-59 -186,-59 -41,0 -45,-2 -45,-25 v -25 h 544 c 588,0 629,3 806,56 177,54 304,128 416,246 78,81 128,159 175,274 61,149 74,224 73,419 0,149 -3,182 -26,271 -70,274 -219,469 -450,593 -91,49 -174,77 -303,103 -91,19 -150,21 -667,25 l -568,5 z m 1015,-108 c 182,-29 328,-177 405,-409 75,-230 82,-649 14,-905 -24,-90 -97,-233 -148,-291 -77,-87 -217,-144 -351,-143 -76,0 -123,17 -149,52 -21,28 -21,34 -24,859 -2,457 -1,837 2,845 5,11 23,13 98,8 51,-4 120,-11 153,-16 z"
       id="path522" /><path
       d="m 8940,11376 c 0,-23 4,-24 73,-28 126,-6 189,-57 202,-161 3,-29 5,-398 3,-822 -3,-694 -5,-773 -20,-800 -37,-68 -92,-95 -194,-95 h -64 v -30 -30 l 857,2 857,3 7,35 c 6,26 63,436 82,580 1,9 -8,16 -24,18 -24,3 -28,-3 -53,-75 -76,-217 -210,-351 -411,-412 -145,-45 -437,-48 -501,-6 -52,33 -54,54 -54,450 v 366 l 68,-7 c 206,-20 289,-125 348,-441 3,-18 11,-23 34,-23 h 30 v 525 525 h -29 c -31,0 -41,-14 -41,-58 0,-41 -34,-163 -62,-224 -54,-117 -139,-175 -272,-185 l -76,-6 v 408 408 l 213,-6 c 228,-8 289,-18 384,-64 113,-56 191,-168 231,-331 16,-67 19,-72 45,-72 h 27 v 290 290 h -830 -830 z"
       id="path524" /><path
       d="m 2360,11356 c 0,-23 5,-25 68,-31 37,-4 82,-11 100,-17 40,-12 87,-58 97,-95 13,-45 18,-1506 5,-1598 -9,-67 -15,-84 -41,-111 -32,-33 -85,-54 -136,-54 -65,0 -93,-11 -93,-36 v -24 h 563 c 625,0 708,6 869,60 124,42 190,81 269,159 110,110 154,243 132,396 -27,192 -151,313 -403,395 -52,16 -102,30 -112,30 -38,0 -15,17 44,34 164,46 297,144 352,259 113,239 -60,546 -350,621 -114,29 -267,36 -815,36 h -549 z m 905,-96 c 155,-18 259,-84 314,-200 24,-50 26,-66 26,-180 0,-114 -2,-130 -26,-180 -14,-31 -40,-72 -57,-91 -66,-75 -215,-128 -364,-129 h -58 v 395 395 h 38 c 20,0 78,-5 127,-10 z m -5,-900 c 143,-14 218,-40 284,-101 97,-88 143,-218 133,-369 -16,-231 -176,-382 -408,-384 -82,-1 -114,12 -146,61 -16,25 -18,64 -21,415 l -3,388 h 33 c 18,0 76,-5 128,-10 z"
       id="path526" /><path
       d="M 1045,9200 C 814,9153 631,9053 469,8883 289,8695 197,8482 183,8224 c -20,-371 121,-666 417,-876 89,-63 258,-144 350,-167 213,-54 515,-54 777,-1 104,21 292,77 367,109 l 44,20 4,268 c 3,247 5,271 23,302 30,51 65,72 144,84 68,11 72,13 69,37 l -3,25 h -485 -485 l -3,-27 c -3,-28 -3,-28 55,-28 40,0 74,-8 110,-24 88,-41 88,-39 91,-357 l 3,-278 -68,-20 c -359,-107 -666,17 -789,320 -116,285 -115,822 3,1117 104,259 309,392 583,379 121,-6 207,-31 313,-91 143,-80 289,-255 353,-422 26,-67 32,-74 57,-74 h 27 v 350 350 h -27 c -24,-1 -32,-9 -52,-51 -25,-55 -69,-89 -113,-89 -15,0 -96,25 -180,55 -84,31 -190,62 -236,70 -120,21 -371,19 -487,-5 z"
       id="path528" /><path
       d="m 7120,9166 c 0,-23 3,-24 83,-27 58,-3 93,-10 121,-25 66,-34 78,-60 87,-176 10,-135 10,-1076 0,-1333 -9,-224 -21,-267 -84,-305 -62,-38 -195,-22 -246,29 -32,32 -26,69 24,151 38,63 45,83 45,128 0,68 -18,108 -67,153 -105,95 -269,63 -335,-64 -34,-66 -32,-174 6,-252 60,-124 206,-234 357,-270 84,-19 259,-19 346,1 190,43 347,174 397,329 34,108 38,189 45,861 l 6,671 27,35 c 33,44 98,68 180,68 55,0 58,1 58,25 v 25 h -525 -525 z"
       id="path530" /><path
       d="m 8310,9166 c 0,-22 5,-24 73,-31 83,-8 141,-31 176,-68 21,-23 25,-41 33,-139 5,-62 8,-435 6,-828 -3,-702 -3,-716 -24,-755 -30,-57 -83,-84 -183,-92 -77,-6 -81,-7 -81,-29 v -24 h 510 510 v 24 c 0,22 -6,24 -70,34 -38,6 -86,20 -105,32 -68,42 -69,45 -73,436 l -4,351 40,31 40,32 259,-320 c 253,-314 326,-415 335,-465 10,-53 -24,-80 -124,-100 -22,-4 -28,-11 -28,-30 v -25 h 525 525 v 24 c 0,19 -7,26 -30,30 -16,3 -43,9 -60,12 -47,9 -139,76 -221,160 -43,44 -244,286 -449,538 -300,372 -369,461 -358,471 23,22 609,486 715,566 125,95 148,107 232,123 61,11 66,14 69,39 l 3,27 h -396 -396 l 3,-27 c 2,-19 9,-29 23,-30 11,-1 46,-5 78,-8 142,-16 159,-124 39,-237 -46,-44 -806,-648 -816,-648 -4,0 -6,172 -4,383 4,403 4,402 52,456 27,30 57,42 126,50 51,6 55,8 58,34 l 3,27 h -505 -506 z"
       id="path532" /><path
       d="m 2797,9163 c -4,-3 -7,-17 -7,-30 0,-22 3,-23 68,-23 53,0 79,-6 120,-26 94,-47 87,26 87,-914 v -825 l -23,-36 c -31,-51 -81,-72 -174,-77 -74,-4 -78,-5 -78,-28 v -24 h 520 520 v 25 c 0,24 -3,25 -57,25 -32,0 -75,5 -96,11 -54,15 -106,65 -117,114 -5,22 -10,205 -10,408 v 367 h 351 350 l -3,-392 c -3,-388 -3,-393 -26,-429 -30,-50 -99,-79 -186,-79 -64,0 -66,-1 -66,-25 v -25 h 520 520 v 25 c 0,24 -3,25 -57,25 -124,0 -199,48 -214,136 -12,73 -11,1540 1,1605 18,93 85,138 203,139 h 68 l -3,28 -3,27 h -515 -515 l -3,-27 -3,-28 h 68 c 54,0 80,-6 121,-26 89,-44 87,-34 90,-456 l 3,-368 h -350 -351 v 338 c 0,196 5,356 11,382 19,85 89,129 202,130 h 67 v 30 30 h -513 c -283,0 -517,-3 -520,-7 z"
       id="path534" /><path
       d="m 5410,9146 c 0,-22 5,-23 77,-30 56,-4 88,-13 121,-32 82,-48 77,6 77,-904 0,-800 0,-805 -21,-851 -27,-58 -79,-85 -181,-95 -68,-6 -73,-8 -73,-30 v -24 h 520 520 v 24 c 0,22 -5,24 -72,30 -84,7 -152,37 -182,79 -21,28 -21,40 -24,835 -2,444 0,821 3,839 7,41 50,92 92,109 18,8 67,17 108,21 70,6 75,7 75,29 v 24 h -520 -520 z"
       id="path536" /><path
       d="m 10780,9146 c 0,-22 5,-23 77,-30 56,-4 88,-13 121,-32 82,-48 77,7 77,-909 v -810 l -23,-43 c -29,-54 -77,-78 -179,-88 -68,-6 -73,-8 -73,-30 v -24 h 878 879 l 17,163 c 10,89 26,240 37,335 24,220 24,212 -5,212 -31,0 -37,-10 -70,-110 -100,-307 -243,-453 -471,-481 -51,-7 -159,-9 -252,-6 -182,6 -209,14 -240,77 -17,33 -18,90 -18,825 v 790 l 23,42 c 31,59 81,82 188,90 80,6 84,7 84,29 v 24 h -525 -525 z"
       id="path538" /><path
       d="m 10775,6936 c -223,-43 -401,-141 -563,-310 -179,-189 -258,-385 -269,-666 -8,-214 24,-365 113,-540 128,-251 368,-439 650,-510 37,-9 44,-16 73,-72 165,-318 507,-488 900,-449 64,7 154,20 201,29 l 85,17 3,41 3,41 -138,5 c -115,4 -151,9 -217,32 -144,49 -243,135 -310,270 -19,39 -34,72 -32,73 1,2 38,12 82,24 271,71 526,305 641,589 57,141 67,202 67,405 1,165 -2,201 -21,272 -81,300 -264,525 -538,658 -167,81 -242,97 -470,101 -130,2 -212,-1 -260,-10 z m 377,-117 c 76,-25 132,-63 190,-128 90,-100 142,-233 175,-446 24,-156 24,-543 -1,-675 -65,-356 -211,-548 -441,-579 -306,-43 -505,162 -575,594 -25,154 -28,483 -5,638 51,338 179,536 390,603 65,21 196,17 267,-7 z"
       id="path540" /><path
       d="m 3322,6813 c 3,-26 8,-29 55,-34 76,-10 121,-37 186,-114 l 58,-69 -3,-756 -3,-755 -30,-60 c -37,-74 -79,-100 -188,-116 -71,-11 -77,-13 -77,-35 v -24 h 355 355 v 24 c 0,21 -5,24 -62,30 -72,7 -158,45 -188,83 -49,63 -50,81 -48,794 l 3,666 670,-824 c 590,-725 673,-823 695,-821 l 25,3 5,910 5,910 23,47 c 29,59 59,78 152,98 69,15 75,18 78,43 l 3,27 h -330 -331 v -25 c 0,-20 6,-25 38,-30 122,-18 182,-50 214,-116 9,-19 21,-69 27,-112 12,-89 15,-937 4,-937 -5,0 -226,274 -493,610 l -485,609 -358,1 h -358 z"
       id="path542" /><path
       d="m 6385,6831 c -142,-23 -300,-85 -412,-162 -122,-84 -260,-243 -328,-379 -142,-280 -139,-675 6,-963 156,-308 426,-495 785,-542 142,-19 209,-19 346,0 247,33 422,116 584,279 134,135 218,280 271,472 26,92 28,112 28,289 0,167 -3,200 -24,275 -46,173 -134,324 -260,451 -130,130 -268,208 -450,256 -84,22 -120,26 -296,29 -110,1 -222,-1 -250,-5 z m 429,-134 c 90,-45 147,-105 203,-214 74,-142 98,-253 114,-510 33,-556 -85,-929 -331,-1046 -56,-27 -78,-32 -166,-35 -208,-8 -339,71 -435,260 -80,158 -109,311 -116,603 -9,409 51,671 193,833 101,116 193,154 356,149 100,-3 112,-6 182,-40 z"
       id="path544" /><path
       d="m 210,6805 c 0,-24 3,-25 53,-25 80,0 150,-24 185,-64 24,-28 32,-47 37,-98 3,-35 5,-398 3,-808 l -3,-745 -25,-50 c -34,-68 -95,-105 -184,-112 -65,-6 -66,-6 -66,-35 v -28 l 343,2 342,3 v 25 c 0,24 -4,25 -69,33 -81,9 -137,36 -179,89 -24,30 -31,50 -38,115 -11,108 -11,1519 0,1508 5,-6 179,-404 386,-885 208,-481 382,-879 387,-885 5,-6 14,-6 24,0 8,6 184,410 390,899 205,489 376,891 379,894 3,3 4,-358 3,-804 -3,-765 -4,-811 -22,-846 -28,-58 -74,-81 -173,-86 l -83,-5 v -28 -29 h 520 520 v 30 30 h -68 c -84,0 -157,32 -187,82 -19,32 -20,56 -23,808 -2,426 0,798 3,827 13,104 74,153 202,161 69,4 73,6 73,28 v 24 h -407 -408 l -264,-643 c -145,-353 -267,-645 -270,-649 -4,-4 -131,284 -283,640 l -276,647 -411,3 -411,2 z"
       id="path546" /><path
       d="m 8020,6766 c 0,-22 5,-24 75,-31 96,-9 152,-37 179,-90 21,-39 21,-56 24,-755 4,-765 -2,-914 -35,-958 -34,-45 -76,-63 -163,-69 l -80,-6 v -28 -29 h 511 510 l -3,28 c -3,26 -5,27 -80,33 -92,8 -145,32 -173,80 -19,32 -20,55 -23,402 l -3,367 h 93 c 348,1 548,56 693,191 282,264 165,713 -218,834 -156,50 -234,55 -792,55 h -515 z m 925,-100 c 157,-41 232,-137 255,-320 8,-65 8,-114 0,-178 -20,-168 -71,-253 -185,-309 -55,-27 -79,-33 -160,-37 l -95,-5 v 432 431 h 68 c 37,0 90,-6 117,-14 z"
       id="path548" /><path
       d="m 3171,4619 c -222,-43 -394,-188 -463,-387 -32,-95 -32,-249 0,-344 63,-183 216,-320 533,-478 313,-156 426,-238 475,-344 71,-151 -20,-332 -193,-386 -166,-51 -358,-5 -515,125 -114,94 -203,240 -250,412 -22,78 -25,83 -50,83 h -28 v -375 -375 h 30 c 23,0 33,7 45,29 8,17 32,43 52,58 52,40 102,37 233,-14 169,-66 227,-76 387,-70 97,4 156,11 199,25 219,70 392,245 439,444 45,193 -9,391 -145,529 -91,92 -189,155 -463,296 -260,134 -310,165 -375,232 -73,75 -94,140 -72,231 17,70 91,152 164,179 235,88 519,-47 650,-309 25,-50 51,-118 58,-150 12,-59 13,-60 46,-60 h 34 l -6,153 c -3,83 -9,232 -12,330 -6,173 -7,177 -28,177 -18,0 -24,-9 -35,-47 -27,-101 -67,-107 -242,-32 -66,27 -154,57 -195,65 -82,15 -203,17 -273,3 z"
       id="path550" /><path
       d="m 230,4547 c 0,-24 4,-26 75,-32 92,-9 152,-37 180,-85 20,-34 20,-50 20,-855 0,-758 -1,-822 -17,-852 -24,-43 -77,-73 -140,-79 -111,-11 -119,-13 -116,-37 l 3,-22 508,-3 507,-2 v 24 c 0,27 -3,28 -114,40 -58,7 -101,30 -130,69 -20,28 -21,40 -24,403 l -3,374 h 63 63 l 320,-455 320,-455 h 313 312 v 30 c 0,25 -4,30 -25,30 -51,0 -115,41 -169,109 -61,76 -534,743 -542,765 -4,9 6,16 30,20 20,4 76,27 125,51 140,71 232,184 262,326 16,74 7,222 -18,291 -52,142 -177,262 -328,313 -129,44 -182,47 -842,52 l -633,5 z m 1042,-101 c 89,-16 166,-55 210,-105 70,-79 105,-213 95,-360 -10,-150 -66,-258 -165,-317 -65,-40 -134,-54 -299,-61 l -133,-6 v 432 431 h 108 c 59,-1 142,-7 184,-14 z"
       id="path552" /><path
       d="m 4340,4290 v -270 h 28 c 25,0 28,4 44,73 38,157 126,275 235,318 48,18 84,23 201,27 l 143,4 -3,-848 c -3,-835 -3,-850 -24,-884 -29,-51 -87,-79 -178,-86 -71,-7 -76,-8 -76,-30 v -24 h 520 520 v 24 c 0,22 -5,23 -76,30 -85,7 -144,33 -178,79 -21,28 -21,34 -24,884 l -2,855 147,-4 c 174,-5 211,-17 296,-97 60,-56 102,-134 136,-248 21,-69 23,-73 51,-73 h 30 v 270 270 h -895 -895 z"
       id="path554" /><path
       d="m 6280,4496 c 0,-22 4,-24 74,-28 86,-6 131,-27 161,-78 19,-34 20,-55 26,-700 7,-736 7,-736 73,-874 65,-135 219,-251 393,-297 112,-30 365,-38 487,-15 170,33 284,91 392,201 80,82 127,177 150,305 14,79 18,194 23,700 6,602 6,605 28,647 39,72 112,113 204,113 46,0 49,2 49,25 v 25 h -345 -345 v -25 c 0,-22 4,-25 38,-25 124,-1 210,-61 232,-163 8,-41 10,-221 7,-644 -4,-649 -6,-666 -68,-783 -90,-170 -296,-264 -506,-232 -43,7 -101,24 -129,37 -73,36 -148,119 -169,186 -28,94 -37,322 -33,904 4,590 5,593 51,644 31,33 61,43 157,50 78,6 85,8 88,29 l 3,22 h -520 -521 z"
       id="path556" /><path
       d="m 8410,4497 c 0,-19 8,-25 48,-36 91,-23 106,-39 176,-183 35,-73 214,-479 396,-903 182,-423 343,-796 357,-827 22,-49 30,-58 52,-58 25,0 42,35 360,743 395,877 474,1045 530,1114 41,53 121,107 173,119 21,4 28,12 28,30 v 24 h -330 -330 v -24 c 0,-21 5,-24 65,-29 173,-16 226,-96 171,-259 -33,-101 -458,-1057 -470,-1058 -14,-2 -506,1154 -512,1204 -6,38 -3,48 18,69 31,31 85,47 161,47 54,0 57,1 57,25 v 25 h -475 -475 z"
       id="path558" /><path
       d="m 3564,2215 c -11,-27 3,-40 55,-54 35,-9 65,-26 96,-54 31,-30 593,-836 679,-976 8,-12 -484,-599 -581,-694 -81,-77 -147,-116 -223,-131 -64,-13 -70,-17 -70,-42 v -24 h 385 385 v 24 c 0,21 -5,24 -66,30 -191,20 -242,112 -143,258 65,96 372,467 384,464 13,-3 335,-475 375,-547 35,-67 37,-87 9,-122 -20,-26 -56,-40 -131,-52 -32,-5 -38,-10 -38,-30 v -25 h 490 490 v 24 c 0,21 -8,27 -55,41 -69,20 -116,60 -198,174 -100,137 -620,914 -620,926 0,15 481,594 549,661 63,62 122,92 200,102 55,6 59,9 62,35 l 3,27 h -371 -371 l 3,-27 c 3,-26 7,-28 58,-34 69,-7 115,-31 140,-72 38,-62 22,-127 -61,-243 -73,-103 -273,-343 -284,-340 -5,1 -88,118 -183,259 -146,218 -173,264 -175,298 -1,31 5,45 25,66 23,22 39,28 100,32 71,6 73,7 76,34 l 3,27 h -496 c -431,0 -496,-2 -501,-15 z"
       id="path560" /><path
       d="m 5970,2207 c 0,-20 8,-25 61,-35 116,-25 127,-41 504,-727 l 257,-468 -4,-276 c -4,-296 -6,-309 -60,-357 -35,-32 -82,-44 -174,-44 h -84 v -30 -30 l 558,2 557,3 v 25 c 0,25 -1,25 -100,30 -109,5 -150,21 -189,73 -20,27 -21,41 -24,361 l -3,333 274,459 c 274,457 352,575 401,607 14,9 50,25 81,34 46,14 55,21 55,40 v 23 h -305 -305 v -24 c 0,-21 6,-24 71,-35 164,-27 185,-77 101,-242 -26,-52 -134,-240 -241,-418 -172,-289 -195,-323 -207,-307 -28,39 -424,774 -444,825 -39,101 -11,140 109,149 67,4 71,6 71,28 v 24 h -480 -480 z"
       id="path562" /><path
       d="m 240,2195 c 0,-19 6,-26 28,-30 72,-15 95,-36 144,-135 40,-80 258,-634 639,-1622 84,-217 84,-218 114,-218 h 30 l 253,623 c 139,342 256,628 261,635 9,14 3,28 297,-770 l 179,-488 h 30 30 l 299,818 c 165,449 321,875 349,945 55,144 90,189 157,207 33,9 40,15 40,35 v 25 h -250 -250 v -24 c 0,-22 6,-26 48,-32 130,-18 164,-80 127,-226 -15,-54 -348,-976 -364,-1006 -4,-7 -18,17 -33,60 -14,40 -103,282 -198,538 -102,276 -174,486 -177,516 -5,43 -2,54 18,78 20,23 37,29 102,38 71,10 77,13 77,35 v 23 h -465 -465 v -24 c 0,-22 6,-25 53,-31 125,-17 161,-66 276,-373 33,-90 61,-169 61,-175 0,-14 -292,-748 -296,-744 -8,8 -396,1016 -418,1086 -30,95 -31,112 -11,150 15,31 47,46 113,56 36,6 42,10 42,31 v 24 H 660 240 Z"
       id="path564" /><path
       d="m 8511,2083 c -6,-76 -18,-205 -26,-287 -8,-82 -13,-152 -10,-156 2,-4 14,-6 26,-5 19,1 27,15 50,83 54,160 133,260 258,326 108,57 180,67 444,64 l 228,-3 -563,-900 C 8608,710 8344,288 8331,267 l -23,-37 918,2 918,3 38,335 c 20,184 37,345 38,358 0,18 -6,22 -28,22 -26,0 -29,-4 -46,-71 -10,-39 -39,-113 -64,-163 -88,-177 -264,-314 -452,-351 -94,-19 -690,-34 -690,-18 0,6 261,428 580,937 319,510 580,929 580,932 0,2 -355,4 -788,4 h -789 z"
       id="path566" /></g></svg>
