<?xml version="1.0" encoding="UTF-8" standalone="no"?>
<svg
   version="1.0"
   width="801.000000pt"
   height="1280.000000pt"
   viewBox="0 0 801.000000 1280.000000"
   preserveAspectRatio="xMidYMid meet"
   id="svg20"
   sodipodi:docname="marker_K.svg"
   xml:space="preserve"
   inkscape:version="1.2 (dc2aedaf03, 2022-05-15)"
   xmlns:inkscape="http://www.inkscape.org/namespaces/inkscape"
   xmlns:sodipodi="http://sodipodi.sourceforge.net/DTD/sodipodi-0.dtd"
   xmlns="http://www.w3.org/2000/svg"
   xmlns:svg="http://www.w3.org/2000/svg"><defs
     id="defs24" /><sodipodi:namedview
     id="namedview22"
     pagecolor="#ffffff"
     bordercolor="#000000"
     borderopacity="0.25"
     inkscape:showpageshadow="2"
     inkscape:pageopacity="0.0"
     inkscape:pagecheckerboard="0"
     inkscape:deskcolor="#d1d1d1"
     inkscape:document-units="pt"
     showgrid="false"
     inkscape:zoom="0.29857056"
     inkscape:cx="75.359071"
     inkscape:cy="854.06947"
     inkscape:window-width="2560"
     inkscape:window-height="1377"
     inkscape:window-x="-8"
     inkscape:window-y="-8"
     inkscape:window-maximized="1"
     inkscape:current-layer="svg20" /><metadata
     id="metadata14">
Created by potrace 1.15, written by Peter Selinger 2001-2017
</metadata><g
     transform="translate(0.000000,1280.000000) scale(0.100000,-0.100000)"
     fill="#03a9f4"
     stroke="none"
     id="g18"><path
       d="M3700 12789 c-604 -45 -1196 -221 -1695 -504 -913 -518 -1599 -1391 -1864 -2375 -58 -212 -95 -412 -122 -660 -17 -150 -17 -632 -1 -775 62 -536 213 -994 498 -1510 444 -806 507 -910 1103 -1823 397 -609 616 -961 825 -1326 703 -1225 1156 -2385 1422 -3634 l39 -182 110 0 111 0 48 228 c281 1350 770 2539 1625 3954 169 281 331 536 656 1033 457 699 644 1000 810 1304 133 245 442 879 502 1031 372 943 312 2106 -157 3040 -395 789 -1032 1421 -1806 1795 -642 310 -1405 457 -2104 404z"
       id="path16" /><path
       d="M 3995.6458,11300.135 C 3959.8176,11233.21 3620.6433,10480.3 2748.8226,8532.2936 2199.4564,7303.7353 2053.7547,7012.1319 1919.996,6861.5499 c -100.3192,-114.7292 -238.855,-203.1664 -365.4482,-227.0683 -54.9366,-11.9509 -74.045,-31.0725 -78.8221,-81.2664 l -7.1657,-64.5353 h 800.1643 802.5526 v 59.7547 c 0,64.5353 -14.3314,69.3158 -236.4665,95.6078 -272.2947,31.0725 -384.5566,136.241 -384.5566,360.9189 0,141.0213 28.6627,229.4583 183.9185,590.3772 l 112.2618,255.7505 835.9924,-4.7804 835.9925,-7.1706 179.1413,-418.2835 c 284.2375,-669.2535 262.7406,-762.471 -186.3068,-803.1041 -157.6444,-14.3413 -169.5871,-21.5117 -169.5871,-71.7058 v -57.3647 H 5400.1132 6558.56 v 59.7547 c 0,45.4138 -16.7199,62.1451 -64.4909,74.0961 -226.9123,50.194 -308.123,112.339 -453.8245,353.7483 -50.1596,78.8763 -508.7611,1097.0977 -1022.2995,2258.7308 -511.1497,1164.0232 -943.4771,2117.7092 -960.197,2122.4902 -14.3314,7.17 -42.9939,-19.122 -62.1023,-57.365 z m -42.994,-2392.5815 c 186.307,-425.454 336.7856,-779.2024 336.7856,-783.9827 0,-4.7804 -317.6771,-9.5607 -704.6222,-9.5607 -386.9451,0 -704.6224,7.1705 -704.6224,16.7313 0,47.8038 704.6224,1582.3066 718.9536,1567.9654 9.5542,-9.5607 169.587,-368.0894 353.5054,-791.1533 z"
       id="path518-2"
       style="display:none;fill:#ffffff;stroke-width:2.38938;image-rendering:auto" /><path
       d="m 1468.56,11299.946 c 0,-53.839 10.8761,-58.733 158.7906,-75.864 180.5427,-19.578 306.7051,-75.864 382.8376,-166.412 45.6795,-56.286 54.3803,-100.337 71.7821,-340.166 10.876,-151.729 17.4017,-1064.5476 13.0512,-2026.3114 -6.5256,-1717.9598 -6.5256,-1752.2211 -52.2051,-1847.6634 C 1977.56,6704.0368 1862.2737,6637.9614 1644.7523,6618.3835 1477.2609,6603.7001 1468.56,6601.2529 1468.56,6547.4137 V 6488.68 h 1109.359 1109.3589 v 58.7337 c 0,53.8392 -13.0512,58.7336 -152.2649,83.206 -82.6581,14.6834 -187.0684,48.9447 -228.3974,78.3116 -147.9146,102.7839 -150.0898,110.1256 -158.7906,1066.9949 l -8.7009,858.9799 87.0085,75.8644 87.0086,78.3115 563.3803,-783.1156 c 550.3291,-768.4321 709.1197,-1015.603 728.6966,-1137.9648 21.7522,-129.7035 -52.2051,-195.7789 -269.7265,-244.7236 -47.8547,-9.789 -60.906,-26.9196 -60.906,-73.4171 V 6488.68 H 5416.5728 6558.56 v 58.7337 c 0,46.4975 -15.2265,63.6281 -65.2564,73.4171 -34.8034,7.3417 -93.5342,22.0251 -130.5128,29.3668 -102.2351,22.0251 -302.3547,185.9899 -480.7223,391.5578 -93.5341,107.6784 -530.7521,699.9095 -976.6709,1316.613 -652.5641,910.3719 -802.6538,1128.1759 -778.7265,1152.6483 50.0299,53.8392 1324.7051,1189.3563 1555.2778,1385.1353 271.9017,232.488 321.9316,261.855 504.6496,301.01 132.688,26.92 143.5641,34.262 150.0897,95.443 l 6.5256,66.075 h -861.3846 -861.3846 l 6.5257,-66.075 c 4.3504,-46.498 19.5769,-70.97 50.0299,-73.417 23.9273,-2.448 100.0598,-12.237 169.6666,-19.578 308.8804,-39.156 345.859,-303.458 84.8334,-579.995 -100.0599,-107.679 -1753.2223,-1585.8094 -1774.9744,-1585.8094 -8.7008,0 -13.0513,420.9247 -8.7008,937.2915 8.7008,986.2359 8.7008,983.7889 113.1111,1115.9399 58.7307,73.417 123.9871,102.784 274.0769,122.362 110.9359,14.683 119.6367,19.577 126.1624,83.206 l 6.5256,66.075 H 2569.2181 1468.56 Z"
       id="path532"
       style="fill:#ffffff;stroke-width:2.30722"
       inkscape:label="K" /><path
       d="m 10780,9146 c 0,-22 5,-23 77,-30 56,-4 88,-13 121,-32 82,-48 77,7 77,-909 v -810 l -23,-43 c -29,-54 -77,-78 -179,-88 -68,-6 -73,-8 -73,-30 v -24 h 878 879 l 17,163 c 10,89 26,240 37,335 24,220 24,212 -5,212 -31,0 -37,-10 -70,-110 -100,-307 -243,-453 -471,-481 -51,-7 -159,-9 -252,-6 -182,6 -209,14 -240,77 -17,33 -18,90 -18,825 v 790 l 23,42 c 31,59 81,82 188,90 80,6 84,7 84,29 v 24 h -525 -525 z"
       id="path538"
       transform="translate(11026.99,-997.98325)"
       style="fill:#ffffff"
       inkscape:label="L" /></g><g
     inkscape:groupmode="layer"
     id="layer1"
     inkscape:label="base" /></svg>
